<svg width="20" height="21" viewBox="0 0 20 21" fill="none" xmlns="http://www.w3.org/2000/svg">
<path d="M9.9773 0.71582C4.56728 0.71582 0.180664 5.10048 0.180664 10.5081C0.180664 14.5168 2.59484 17.9616 6.04553 19.4785C6.01928 18.7965 6.04115 17.9747 6.21609 17.2315C6.40415 16.4359 7.47566 11.8939 7.47566 11.8939C7.47566 11.8939 7.16077 11.2687 7.16077 10.3463C7.16077 8.89499 8.00048 7.81084 9.05012 7.81084C9.94231 7.81084 10.3709 8.47969 10.3709 9.27968C10.3709 10.1758 9.79799 11.5135 9.50496 12.7551C9.26005 13.7955 10.0254 14.6392 11.0532 14.6392C12.9075 14.6392 14.1584 12.2567 14.1584 9.43269C14.1584 7.28626 12.7107 5.6819 10.0823 5.6819C7.11266 5.6819 5.2583 7.89827 5.2583 10.3726C5.2583 11.225 5.51196 11.8283 5.90557 12.2917C6.08489 12.5059 6.11113 12.5933 6.04553 12.8381C5.99742 13.0174 5.89245 13.4501 5.84435 13.625C5.77874 13.8742 5.57756 13.9616 5.35451 13.8698C3.98561 13.3102 3.34708 11.8152 3.34708 10.1278C3.34708 7.34746 5.69565 4.01197 10.349 4.01197C14.0884 4.01197 16.5507 6.71795 16.5507 9.62066C16.5507 13.4633 14.412 16.331 11.2631 16.331C10.2047 16.331 9.21194 15.7583 8.87081 15.1113C8.87081 15.1113 8.30225 17.367 8.17979 17.8042C7.97424 18.5605 7.5675 19.3124 7.19576 19.9025C8.09752 20.1684 9.03274 20.3039 9.97293 20.3047C15.3829 20.3047 19.7696 15.9201 19.7696 10.5125C19.7696 5.10485 15.3873 0.71582 9.9773 0.71582Z" fill="#274C5B"/>
</svg>
